<svg xmlns="http://www.w3.org/2000/svg" fill-rule="evenodd" clip-rule="evenodd" image-rendering="optimizeQuality" shape-rendering="geometricPrecision" text-rendering="geometricPrecision" viewBox="0 0 339 340">
  <path fill="#322d2d" d="M162.7 55c-2.5 2.9-5 8.7-6.2 14.4l-.6 2.9-2.6-2.7c-1.4-1.6-4.1-3.4-5.9-4.2-3.8-1.6-12.2-1.8-14.4-.4-1.2.7-1 1.2 1.2 3 3.1 2.4 8.4 12.7 9.3 18.1l.7 3.5-8.4 1.8c-22.1 4.8-38.4 13.2-52.3 27.1-12.9 12.9-21.2 28.3-24.2 44.8-1.6 8.8-1.3 28.6.7 44.1 2.5 19.8 13.4 40.6 28.3 54.2 42.3 38.3 124.4 36.1 161.9-4.4 14.5-15.7 22.3-34.4 24.8-59.7 3.8-37.8-9.9-71.1-36.7-89.3-11.9-8.1-27.6-14.4-42.6-17.2l-6.9-1.3.7-3.6c1-5.7 5.2-14 8.7-17.3 3.8-3.6 2.8-4.8-4.4-4.8-6 0-9.5 1.4-13.5 5.2l-3.2 3.1-.6-2.9C174.3 59.9 170 52 167 52c-1 0-2.9 1.3-4.3 3zm39.5 44c18.5 4.8 32.8 12.9 44.1 25 16.3 17.3 23.6 42.5 20.9 71.7-3.5 37.2-19.9 61.9-49.5 74.5-18.7 8-26.7 9.4-34.2 5.9-11.3-5.2-16.5-18.7-18.5-47.3-2.5-36.1.5-97.8 5.6-115.8 4.2-15.1 12.9-18.9 31.6-14z"/>
  <path fill="#444444" d="M188.5 89.5h2c39.22 4.734 66.053 25.401 80.5 62 8.474 31.198 5.474 61.198-9 90-16.373 25.949-39.873 40.949-70.5 45-12.706-1.62-21.873-8.287-27.5-20a607.423 607.423 0 0 1-8-26 1114.678 1114.678 0 0 0-2.5-49 863.95 863.95 0 0 1 3.5-52 708.777 708.777 0 0 1 7-34c4.464-11.34 12.631-16.674 24.5-16Z"/>
  <path fill="#bebebe" d="M182.5 96.5c52.935 4.102 81.269 32.602 85 85.5.623 25.124-6.543 47.624-21.5 67.5-15.303 15.152-33.636 24.485-55 28-7.767-.765-13.767-4.432-18-11-4.714-10.145-7.381-20.811-8-32a1721.64 1721.64 0 0 1 0-83 227.812 227.812 0 0 1 6-42c2.3-5.794 6.133-10.127 11.5-13Z"/>
  <path fill="#444444" d="M185.5 106.5c41.574 2.409 66.074 24.076 73.5 65a162.756 162.756 0 0 1-1 33c-2.697 9.267-8.864 13.434-18.5 12.5a713.415 713.415 0 0 0-36-12c-10.578-4.592-20.078-10.758-28.5-18.5a22.981 22.981 0 0 1-2-5 312.898 312.898 0 0 1 3-57c-.18-7.983 2.987-13.983 9.5-18Z"/>
  <path fill="#7e7e7e" d="M185.5 112.5c6.261-1.063 9.595 1.437 10 7.5.022 6.49-2.978 10.656-9 12.5a7.93 7.93 0 0 1-3.5-1c-3.98-7.174-3.147-13.507 2.5-19Z"/>
  <path fill="#fefefe" d="M185.5 114.5c4.697 1.374 5.031 3.374 1 6-3.475-1.584-3.808-3.584-1-6Z"/>
  <path fill="#7e7e7e" d="M205.5 115.5c10.993.186 13.827 5.186 8.5 15-2.489 3.332-5.656 5.666-9.5 7-4.431-1.541-6.098-4.708-5-9.5-.776-5.612 1.224-9.778 6-12.5Z"/>
  <path fill="#fefefe" d="M205.5 118.5h4c.49 2.448-.343 4.115-2.5 5-2.611-1-3.111-2.667-1.5-5Z"/>
  <path fill="#7e7e7e" d="M222.5 124.5c10.06-.784 13.56 3.549 10.5 13-4.456 5.501-9.956 7.334-16.5 5.5-2.366-4.658-1.866-9.158 1.5-13.5a31.447 31.447 0 0 0 4.5-5Z"/>
  <path fill="#fefefe" d="M224.5 126.5c3.661-.15 4.661 1.35 3 4.5-3.793.487-4.793-1.013-3-4.5Z"/>
  <path fill="#7e7e7e" d="M189.5 136.5c5.887-.746 8.887 1.754 9 7.5-.233 8.581-4.4 12.414-12.5 11.5-4.114-7.487-2.947-13.82 3.5-19Z"/>
  <path fill="#fefefe" d="M189.5 138.5c4.697 1.374 5.031 3.374 1 6-3.475-1.584-3.808-3.584-1-6Z"/>
  <path fill="#7e7e7e" d="M235.5 139.5c9.157-1.011 12.99 2.989 11.5 12-5.028 5.452-11.194 7.285-18.5 5.5-2.707-1.864-3.541-4.364-2.5-7.5 2.696-3.861 5.863-7.194 9.5-10Z"/>
  <path fill="#fefefe" d="M237.5 141.5c3.638-.763 5.138.57 4.5 4-4.585 1.913-6.085.579-4.5-4Z"/>
  <path fill="#7e7e7e" d="M205.5 144.5c12.176.974 14.176 6.14 6 15.5-9.056 4.978-12.889 2.478-11.5-7.5 1.273-3.097 3.107-5.764 5.5-8Z"/>
  <path fill="#fefefe" d="M206.5 145.5c3.85.201 4.85 2.034 3 5.5-3.963.118-4.963-1.716-3-5.5Z"/>
  <path fill="#7e7e7e" d="M217.5 159.5c7.879-.284 10.712 3.383 8.5 11-5.506 4.698-11.173 5.031-17 1-.667-1.667-.667-3.333 0-5 2.441-2.954 5.275-5.287 8.5-7Zm25-2c7.998-.5 11.831 3.167 11.5 11-2.262 4.431-5.929 6.431-11 6-3.651.005-6.984-.995-10-3-1.373-2.195-1.706-4.529-1-7 3.154-3.012 6.654-5.345 10.5-7Z"/>
  <path fill="#fefefe" d="M243.5 159.5c3.85.201 4.85 2.034 3 5.5-3.963.118-4.963-1.716-3-5.5Zm-26 2h5v4c-3.45.744-5.116-.59-5-4Z"/>
  <path fill="#7e7e7e" d="M182.5 159.5c4.895-.404 7.562 1.763 8 6.5-.742 5.672-3.742 9.505-9 11.5-1.925-.09-3.092-1.09-3.5-3a30.485 30.485 0 0 1 0-11c1.397-1.57 2.897-2.904 4.5-4Z"/>
  <path fill="#fefefe" d="M181.5 162.5h4v4h-4v-4Z"/>
  <path fill="#7e7e7e" d="M197.5 168.5c5.826-.343 8.326 2.324 7.5 8-2.402 5.592-6.569 7.425-12.5 5.5-2.337-2.593-2.504-5.426-.5-8.5a37.84 37.84 0 0 1 5.5-5Z"/>
  <path fill="#fefefe" d="M197.5 170.5h3v4c-3.454.233-4.454-1.1-3-4Z"/>
  <path fill="#7e7e7e" d="M215.5 177.5c5.349-1.039 9.849.295 13.5 4 1.608 7.12-1.226 10.454-8.5 10-4.094.202-7.594-1.131-10.5-4-.667-2-.667-4 0-6a59.93 59.93 0 0 1 5.5-4Z"/>
  <path fill="#fefefe" d="M220.5 179.5h4c.49 2.448-.343 4.115-2.5 5-2.611-1-3.111-2.667-1.5-5Z"/>
  <path fill="#7e7e7e" d="M239.5 177.5c6.201-1.215 11.368.452 15.5 5 1.377 8.29-2.123 12.123-10.5 11.5-6.655-1.321-10.489-5.154-11.5-11.5 1.805-2.326 3.972-3.992 6.5-5Z"/>
  <path fill="#fefefe" d="M245.5 179.5c3.638-.763 5.138.57 4.5 4-3.669 1.509-5.169.176-4.5-4Z"/>
  <path fill="#7e7e7e" d="M191.5 185.5c4.283-.511 8.283.156 12 2 2.453 2.496 2.62 5.162.5 8-6.868 3.5-12.035 1.666-15.5-5.5a20.987 20.987 0 0 1 3-4.5Z"/>
  <path fill="#fefefe" d="M197.5 186.5c3-.333 4.333 1 4 4h-4v-4Z"/>
  <path fill="#7e7e7e" d="M211.5 194.5c5.265-.929 9.765.404 13.5 4 .067 9.351-4.1 11.517-12.5 6.5-3.565-3.216-3.898-6.716-1-10.5Zm24 2c5.215-.798 9.715.536 13.5 4 2.343 8.992-1.157 12.492-10.5 10.5-4.578-2.212-7.078-5.712-7.5-10.5 1.25-1.693 2.75-3.027 4.5-4Z"/>
  <path fill="#fefefe" d="M218.5 197.5h4v4h-4v-4Zm22 1c3.41-.116 4.744 1.55 4 5-4.435.578-5.768-1.089-4-5Z"/>
  <path fill="#444444" d="M177.5 202.5a12.93 12.93 0 0 1 5 .5 267.498 267.498 0 0 0 19 11 373.994 373.994 0 0 1 34 12c6.796 3.422 8.629 8.589 5.5 15.5-12.492 13.981-27.992 22.648-46.5 26-6.714-.276-11.881-3.276-15.5-9a51.614 51.614 0 0 1-5-15 242.624 242.624 0 0 1-2-34c.938-3.098 2.772-5.431 5.5-7Z"/>
  <path fill="#7e7e7e" d="M188.5 211.5c3.682.091 6.849 1.424 9.5 4 1.167 5.5-1 7.667-6.5 6.5-4.529-2.803-5.529-6.303-3-10.5Z"/>
  <path fill="#fefefe" d="M189.5 212.5c3.361.703 3.694 2.037 1 4-2.142-.937-2.476-2.27-1-4Z"/>
  <path fill="#7e7e7e" d="M177.5 214.5c2.579-.417 4.746.25 6.5 2a16.242 16.242 0 0 1 0 8c-4.382 4.446-7.549 3.613-9.5-2.5a33.697 33.697 0 0 1 3-7.5Z"/>
  <path fill="#fefefe" d="M178.5 215.5h3v3h-3v-3Z"/>
  <path fill="#7e7e7e" d="M203.5 219.5c6.495-.76 10.495 1.907 12 8 .11 1.874-.556 3.374-2 4.5-7.049 1.646-11.382-1.021-13-8 .057-2.209 1.057-3.709 3-4.5Z"/>
  <path fill="#fefefe" d="M202.5 221.5h4v4c-3 .333-4.333-1-4-4Z"/>
  <path fill="#7e7e7e" d="M190.5 225.5c6.309.806 10.309 4.306 12 10.5-1.882 7.182-5.716 8.349-11.5 3.5-3.01-4.679-3.177-9.346-.5-14Z"/>
  <path fill="#fefefe" d="M191.5 227.5c3-.333 4.333 1 4 4h-5c-.067-1.459.266-2.792 1-4Z"/>
  <path fill="#7e7e7e" d="M222.5 226.5c9.759-.072 14.592 4.595 14.5 14-2.251 3.626-5.418 4.793-9.5 3.5-4.509-3.005-7.176-7.172-8-12.5a11.948 11.948 0 0 1 3-5Z"/>
  <path fill="#fefefe" d="M222.5 228.5a8.43 8.43 0 0 1 4 .5c.974 2.702-.026 4.035-3 4-2.048-1.226-2.381-2.726-1-4.5Z"/>
  <path fill="#7e7e7e" d="M180.5 234.5c4.317.82 6.817 3.487 7.5 8 1.258 6.368-1.242 9.202-7.5 8.5l-2.5-2.5c-1.282-5.205-.449-9.872 2.5-14Z"/>
  <path fill="#fefefe" d="M180.5 236.5h3v4c-3.454.233-4.454-1.1-3-4Z"/>
  <path fill="#7e7e7e" d="M209.5 236.5c8.459 1.612 12.626 6.612 12.5 15-2.339 4.756-5.839 5.923-10.5 3.5-4.65-4.574-6.15-10.074-4.5-16.5.995-.566 1.828-1.233 2.5-2Z"/>
  <path fill="#fefefe" d="M209.5 238.5c3.661-.15 4.661 1.35 3 4.5-3.793.487-4.793-1.013-3-4.5Z"/>
  <path fill="#7e7e7e" d="M194.5 245.5c9.314 3.467 11.314 9.3 6 17.5-8.101.55-11.268-3.283-9.5-11.5.564-2.387 1.73-4.387 3.5-6Z"/>
  <path fill="#fefefe" d="M194.5 248.5c2.666-.434 3.833.566 3.5 3-3.597 1.566-4.763.566-3.5-3Z"/>
</svg>