<?xml version="1.0" standalone="no"?>
<!DOCTYPE svg PUBLIC "-//W3C//DTD SVG 20010904//EN"
 "http://www.w3.org/TR/2001/REC-SVG-20010904/DTD/svg10.dtd">
<svg version="1.0" xmlns="http://www.w3.org/2000/svg"
 width="339.000000pt" height="340.000000pt" viewBox="0 0 339.000000 340.000000"
 preserveAspectRatio="xMidYMid meet">

<g transform="translate(0.000000,340.000000) scale(0.100000,-0.100000)"
fill="#555555" stroke="none">
<path d="M1627 2850 c-25 -29 -50 -87 -62 -144 l-6 -29 -26 27 c-14 16 -41 34
-59 42 -38 16 -122 18 -144 4 -12 -7 -10 -12 12 -30 31 -24 84 -127 93 -181
l7 -35 -84 -18 c-221 -48 -384 -132 -523 -271 -129 -129 -212 -283 -242 -448
-16 -88 -13 -286 7 -441 25 -198 134 -406 283 -542 423 -383 1244 -361 1619
44 145 157 223 344 248 597 38 378 -99 711 -367 893 -119 81 -276 144 -426
172 l-69 13 7 36 c10 57 52 140 87 173 38 36 28 48 -44 48 -60 0 -95 -14 -135
-52 l-32 -31 -6 29 c-22 95 -65 174 -95 174 -10 0 -29 -13 -43 -30z m395 -440
c185 -48 328 -129 441 -250 163 -173 236 -425 209 -717 -35 -372 -199 -619
-495 -745 -187 -80 -267 -94 -342 -59 -113 52 -165 187 -185 473 -25 361 5
978 56 1158 42 151 129 189 316 140z"/>
<path d="M1854 2321 c-30 -13 -62 -57 -73 -100 -18 -69 -43 -357 -45 -508 -1
-180 -1 -180 120 -261 129 -86 198 -117 371 -162 43 -11 105 -32 139 -46 53
-22 66 -24 100 -15 43 13 72 34 97 71 23 36 40 198 33 313 -24 342 -191 568
-501 677 -94 33 -204 47 -241 31z m44 -97 c4 -26 -26 -40 -45 -21 -8 7 -11 21
-7 31 9 24 48 17 52 -10z m201 -22 c12 -23 -1 -45 -25 -40 -23 4 -31 37 -12
49 19 13 26 11 37 -9z m194 -86 c8 -20 -8 -38 -29 -34 -22 4 -31 37 -13 48 15
10 36 3 42 -14z m-355 -134 c4 -28 -24 -40 -45 -19 -14 13 -14 19 -3 32 18 22
44 15 48 -13z m482 -7 c17 -20 5 -45 -20 -45 -11 0 -23 7 -26 15 -6 15 11 45
26 45 4 0 13 -7 20 -15z m-312 -63 c4 -28 -24 -40 -45 -19 -14 13 -14 19 -3
32 18 22 44 15 48 -13z m370 -140 c4 -30 -26 -42 -44 -17 -10 14 -11 22 -2 32
16 20 42 12 46 -15z m-250 -6 c4 -21 -14 -37 -35 -29 -14 5 -18 35 -6 47 12
12 38 1 41 -18z m-368 -16 c0 -27 -19 -35 -38 -17 -12 13 -13 19 -3 31 16 19
41 10 41 -14z m155 -70 c4 -6 1 -18 -6 -26 -11 -13 -14 -13 -27 0 -8 8 -11 19
-8 25 9 14 33 14 41 1z m234 -88 c12 -23 -1 -45 -25 -40 -23 4 -31 37 -12 49
19 13 26 11 37 -9z m249 9 c19 -12 11 -45 -12 -49 -24 -5 -37 17 -25 40 11 20
18 22 37 9z m-481 -87 c3 -8 1 -20 -6 -27 -14 -14 -47 15 -37 32 10 16 36 13
43 -5z m217 -109 c2 -7 -2 -19 -10 -26 -12 -10 -18 -9 -31 4 -13 13 -14 19 -4
31 14 16 37 12 45 -9z m220 -12 c8 -20 -19 -44 -40 -36 -14 5 -19 35 -7 46 12
13 41 7 47 -10z"/>
<path d="M1768 1355 c-15 -8 -30 -25 -34 -37 -23 -64 8 -390 44 -471 23 -51
79 -103 128 -116 98 -27 322 69 451 194 64 62 73 74 73 106 0 30 -7 43 -40 73
-45 40 -68 51 -206 96 -144 46 -217 78 -282 121 -69 46 -99 53 -134 34z m162
-105 c0 -21 -24 -28 -35 -10 -8 14 3 30 21 30 8 0 14 -9 14 -20z m-100 -25 c0
-21 -19 -28 -36 -15 -10 9 -11 16 -3 26 12 15 39 8 39 -11z m240 -50 c15 -18
5 -35 -21 -35 -12 0 -19 7 -19 18 0 33 20 42 40 17z m-110 -75 c0 -24 -26 -38
-42 -22 -16 16 -2 42 22 42 13 0 20 -7 20 -20z m310 5 c17 -20 5 -45 -20 -45
-11 0 -23 7 -26 15 -6 15 11 45 26 45 4 0 13 -7 20 -15z m-427 -89 c7 -18 -11
-36 -29 -29 -21 8 -17 43 5 43 10 0 21 -6 24 -14z m292 -31 c0 -13 -8 -21 -22
-23 -17 -3 -23 2 -23 16 0 10 3 22 7 26 13 13 38 1 38 -19z m-145 -95 c0 -23
-13 -32 -34 -24 -19 7 -21 40 -3 47 20 7 37 -4 37 -23z"/>
</g>
</svg>
